<svg xmlns="http://www.w3.org/2000/svg" xmlns:xlink="http://www.w3.org/1999/xlink" width="70" height="22" viewBox="0 0 70 22">
    <defs>
        <path id="a" d="M.13.038h7.579v15.606H.129z"/>
    </defs>
    <g fill="none" fill-rule="evenodd">
        <path d="M0 0h70v22H0z"/>
        <path fill="#FFF" d="M20.986 7.875a3.075 3.075 0 0 0-3.071 3.073 3.075 3.075 0 0 0 3.071 3.072 3.076 3.076 0 0 0 3.073-3.072 3.076 3.076 0 0 0-3.073-3.073m0 9.34a6.275 6.275 0 0 1-6.267-6.267 6.275 6.275 0 0 1 6.268-6.268c1.114 0 2.205.392 3.164.957v-.455c0-.08.065-.144.144-.144h2.815c.08 0 .145.065.145.144v11.51c0 .08-.065.146-.145.146h-2.815a.145.145 0 0 1-.144-.145v-.434c-.959.565-2.05.957-3.164.957M57.187 16.838a.145.145 0 0 1-.145-.145V5.183c0-.08.065-.145.145-.145H60c.08 0 .145.065.145.144v11.51c0 .08-.065.146-.145.146h-2.814zM58.594 3.86a1.878 1.878 0 0 1-1.875-1.875c0-1.034.84-1.875 1.875-1.875 1.034 0 1.876.841 1.876 1.875a1.878 1.878 0 0 1-1.876 1.876M31.433 21.785a.145.145 0 0 1-.132-.203l2.177-4.89-5.099-11.45a.142.142 0 0 1 .011-.139.144.144 0 0 1 .121-.065h3.14c.064 0 .123.038.15.098l3.411 7.66 3.411-7.66a.165.165 0 0 1 .151-.098h3.139a.145.145 0 0 1 .132.203l-7.323 16.447a.165.165 0 0 1-.151.097h-3.138zM7.113 7.875a3.075 3.075 0 0 0-3.072 3.073 3.075 3.075 0 0 0 3.072 3.072 3.076 3.076 0 0 0 3.072-3.072 3.076 3.076 0 0 0-3.072-3.073m0 9.34a6.275 6.275 0 0 1-6.268-6.267A6.275 6.275 0 0 1 7.113 4.68c1.114 0 2.204.392 3.164.957V.867c0-.067.048-.126.114-.14l2.815-.613.021-.001c.05 0 .077.01.1.029a.143.143 0 0 1 .054.113v16.438c0 .08-.065.145-.144.145h-2.815a.145.145 0 0 1-.145-.145v-.435c-.96.566-2.05.958-3.164.958M49.437 7.875a3.076 3.076 0 0 0-3.072 3.073 3.075 3.075 0 0 0 3.072 3.072 3.076 3.076 0 0 0 3.072-3.072 3.076 3.076 0 0 0-3.072-3.073m0 9.34c-1.115 0-2.205-.391-3.165-.957v.435c0 .08-.065.145-.144.145h-2.814a.145.145 0 0 1-.145-.145V.867c0-.067.048-.126.113-.14l2.816-.613.02-.001c.05 0 .078.01.1.029a.144.144 0 0 1 .055.113v5.382c.96-.565 2.05-.957 3.164-.957a6.275 6.275 0 0 1 6.268 6.268 6.275 6.275 0 0 1-6.268 6.268"/>
        <g transform="translate(61.354 1.193)">
            <mask id="b" fill="#fff">
                <use xlink:href="#a"/>
            </mask>
            <path fill="#FFF" d="M2.512 15.644a.145.145 0 0 1-.144-.144V6.613H.274a.145.145 0 0 1-.144-.145v-2.48c0-.079.065-.144.144-.144h2.094V.792c0-.067.048-.127.113-.141L5.296.038h.021c.05 0 .077.01.1.029a.144.144 0 0 1 .054.112v3.665h2.093c.08 0 .145.065.145.145v2.48c0 .079-.065.144-.145.144H5.471V15.5c0 .08-.065.144-.144.144H2.512z" mask="url(#b)"/>
        </g>
    </g>
</svg>
